<?xml version="1.0" standalone="no"?>
<!DOCTYPE svg PUBLIC "-//W3C//DTD SVG 20010904//EN"
 "http://www.w3.org/TR/2001/REC-SVG-20010904/DTD/svg10.dtd">
<svg version="1.0" xmlns="http://www.w3.org/2000/svg"
 width="170.000000pt" height="170.000000pt" viewBox="0 0 170.000000 170.000000"
 preserveAspectRatio="xMidYMid meet">

<g transform="translate(0.000000,170.000000) scale(0.100000,-0.100000)"
fill="#000000" stroke="none">
<path d="M1145 1304 c-88 -13 -200 -38 -278 -61 l-87 -26 2 -206 3 -206 74 -3
74 -3 -31 36 c-37 42 -46 71 -40 130 10 86 80 141 168 133 85 -8 140 -70 140
-158 0 -77 -45 -132 -126 -152 l-51 -13 79 -165 c44 -91 84 -175 89 -187 l9
-23 -128 0 -127 0 -67 138 -66 137 -1 -137 -1 -138 -125 0 -125 0 0 345 c0
210 -4 345 -9 345 -6 0 -56 -31 -113 -69 -140 -94 -273 -216 -381 -349 l-27
-34 0 -319 0 -319 850 0 850 0 0 639 0 639 -47 12 c-48 11 -450 22 -508 14z"/>
</g>
</svg>
